<?xml version="1.0" standalone="no"?>
<!DOCTYPE svg PUBLIC "-//W3C//DTD SVG 20010904//EN"
 "http://www.w3.org/TR/2001/REC-SVG-20010904/DTD/svg10.dtd">
<svg version="1.0" xmlns="http://www.w3.org/2000/svg"
 width="4015.000000pt" height="4015.000000pt" viewBox="0 0 4015.000000 4015.000000"
 preserveAspectRatio="xMidYMid meet">
<metadata>
Created by potrace 1.14, written by Peter Selinger 2001-2017
</metadata>
<g transform="translate(0.000000,4015.000000) scale(0.100000,-0.100000)"
fill="#000000" stroke="none">
<path d="M19825 40134 c-96 -23 -159 -52 -340 -157 -93 -55 -190 -110 -213
-124 -24 -14 -65 -38 -90 -54 -26 -16 -59 -34 -74 -40 -16 -6 -28 -15 -28 -20
0 -5 -5 -9 -11 -9 -10 0 -134 -71 -156 -90 -7 -5 -14 -10 -17 -10 -9 0 -151
-84 -154 -92 -2 -4 -8 -8 -14 -8 -13 0 -222 -122 -226 -132 -2 -4 -8 -8 -14
-8 -27 0 -161 -93 -224 -155 -143 -142 -207 -305 -199 -510 4 -127 13 -166 62
-274 67 -148 163 -238 393 -369 49 -28 133 -76 290 -167 74 -43 151 -88 171
-99 20 -12 63 -36 95 -55 33 -19 133 -77 224 -129 91 -53 217 -126 280 -163
63 -36 132 -76 153 -88 42 -24 30 -17 322 -186 334 -194 546 -316 587 -339 20
-12 98 -57 174 -101 76 -44 161 -93 189 -109 27 -15 77 -44 110 -63 89 -53
110 -65 220 -128 55 -32 114 -65 130 -75 17 -9 55 -31 85 -49 30 -17 62 -36
70 -41 8 -5 31 -17 50 -27 19 -9 37 -20 40 -23 3 -3 75 -46 160 -95 85 -49
202 -116 260 -150 58 -34 125 -73 150 -87 111 -62 126 -71 135 -78 6 -4 30
-19 55 -32 25 -14 90 -51 145 -83 55 -32 120 -69 145 -83 25 -14 73 -43 108
-64 34 -21 64 -38 66 -38 2 0 33 -17 67 -38 35 -22 84 -50 109 -64 48 -27 268
-154 490 -283 206 -120 311 -180 418 -240 53 -30 104 -59 112 -65 16 -10 214
-126 270 -158 19 -10 58 -33 86 -49 27 -17 72 -43 100 -58 27 -15 133 -76 236
-136 102 -60 191 -109 196 -109 6 0 12 -4 14 -8 2 -4 54 -37 116 -73 62 -35
120 -68 130 -74 9 -5 53 -31 97 -56 44 -26 96 -56 115 -67 74 -42 435 -251
663 -383 131 -77 240 -139 243 -139 2 0 28 -16 58 -35 30 -19 58 -35 61 -35 3
0 22 -11 43 -23 20 -13 98 -59 172 -102 291 -168 396 -229 430 -248 19 -11
114 -65 210 -122 96 -56 225 -130 285 -165 177 -101 249 -143 385 -222 89 -52
710 -411 775 -448 17 -10 71 -41 120 -70 50 -29 108 -62 130 -75 22 -12 96
-55 165 -95 344 -199 448 -260 480 -278 19 -11 64 -36 100 -57 36 -21 85 -49
110 -63 25 -14 72 -42 105 -61 33 -20 74 -43 90 -51 17 -8 32 -17 35 -20 5 -6
39 -26 130 -78 42 -23 247 -142 415 -239 66 -38 239 -139 385 -223 146 -84
279 -161 295 -170 17 -10 116 -67 220 -127 105 -61 235 -136 290 -168 55 -32
114 -66 130 -75 101 -58 142 -81 155 -90 8 -5 76 -44 150 -87 183 -105 326
-193 439 -269 51 -35 95 -64 97 -64 2 0 12 -7 21 -14 10 -8 68 -52 128 -97
450 -336 861 -744 1189 -1179 55 -74 105 -139 109 -145 29 -38 157 -227 157
-234 0 -4 8 -16 18 -27 9 -10 26 -36 37 -56 11 -21 23 -38 27 -38 5 0 8 -5 8
-10 0 -6 18 -40 40 -76 22 -36 40 -67 40 -69 0 -1 24 -45 53 -96 51 -91 167
-323 220 -441 65 -142 202 -493 212 -541 2 -9 7 -22 10 -27 3 -5 8 -18 10 -27
2 -10 10 -38 19 -63 26 -77 82 -279 96 -346 5 -23 19 -79 30 -125 12 -46 23
-93 25 -104 3 -20 10 -55 20 -105 3 -14 8 -40 11 -59 3 -18 7 -41 9 -50 1 -9
6 -36 10 -61 3 -25 9 -58 12 -75 2 -16 6 -43 9 -60 2 -16 6 -52 10 -80 4 -27
8 -63 9 -80 8 -94 16 -175 22 -215 3 -25 7 -650 9 -1390 3 -1143 1 -1357 -11
-1425 -19 -104 -42 -196 -61 -240 -8 -19 -14 -37 -15 -40 0 -10 -31 -82 -57
-135 -83 -171 -210 -329 -361 -453 -55 -45 -321 -217 -336 -217 -1 0 -54 -30
-116 -67 -63 -36 -152 -88 -199 -115 -47 -27 -101 -58 -120 -70 -19 -11 -102
-59 -185 -106 -82 -48 -151 -90 -153 -94 -2 -4 -8 -8 -14 -8 -5 0 -47 -22 -91
-48 -45 -26 -89 -51 -97 -55 -8 -4 -24 -13 -35 -20 -11 -7 -49 -29 -85 -50
-36 -21 -72 -42 -80 -47 -54 -32 -192 -112 -225 -130 -75 -42 -130 -74 -135
-80 -3 -3 -26 -16 -52 -30 -26 -14 -113 -63 -193 -110 -80 -47 -158 -91 -173
-99 -15 -8 -28 -18 -30 -23 -2 -4 -8 -8 -14 -8 -6 0 -36 -15 -67 -34 -31 -19
-72 -43 -92 -54 -108 -60 -204 -118 -207 -124 -2 -5 -8 -8 -14 -8 -6 0 -36
-15 -67 -34 -31 -19 -76 -45 -101 -59 -127 -71 -567 -327 -577 -336 -7 -6 -15
-11 -19 -11 -3 0 -32 -15 -63 -34 -31 -19 -72 -43 -92 -54 -108 -60 -204 -118
-207 -124 -2 -5 -8 -8 -13 -8 -10 0 -346 -193 -366 -210 -7 -5 -15 -10 -18
-10 -3 0 -77 -41 -163 -91 -86 -51 -173 -101 -192 -111 -19 -11 -39 -24 -45
-28 -5 -4 -30 -18 -55 -32 -25 -14 -133 -76 -240 -138 -107 -62 -278 -161
-380 -220 -102 -59 -312 -180 -468 -271 -155 -90 -297 -172 -315 -183 -17 -10
-88 -51 -157 -91 -69 -40 -186 -107 -260 -150 -139 -80 -422 -244 -475 -275
-46 -27 -345 -199 -390 -225 -22 -13 -134 -78 -250 -145 -115 -67 -226 -131
-245 -142 -19 -11 -107 -62 -195 -113 -340 -198 -792 -459 -835 -483 -25 -14
-135 -78 -245 -142 -110 -64 -220 -128 -245 -141 -25 -13 -46 -27 -48 -31 -2
-5 -10 -8 -18 -8 -8 0 -14 -4 -14 -10 0 -5 -4 -10 -9 -10 -12 0 -175 -93 -179
-102 -2 -4 -8 -8 -13 -8 -12 0 -553 -312 -557 -322 -2 -4 -8 -8 -13 -8 -13 0
-1053 -603 -1057 -612 -2 -5 -8 -8 -13 -8 -10 0 -41 -18 -324 -183 -66 -38
-136 -78 -155 -89 -89 -51 -495 -288 -583 -340 -54 -32 -99 -58 -101 -58 -2 0
-66 -37 -142 -81 -76 -45 -153 -90 -169 -99 -17 -9 -87 -50 -155 -90 -69 -40
-138 -81 -155 -90 -16 -10 -88 -51 -160 -92 -71 -41 -139 -80 -150 -86 -29
-16 -218 -105 -230 -108 -5 -1 -28 -10 -50 -20 -22 -10 -42 -18 -45 -18 -4 -1
-75 -26 -120 -43 -8 -3 -19 -7 -25 -9 -5 -1 -41 -12 -80 -24 -38 -12 -77 -23
-85 -26 -17 -5 -133 -31 -170 -39 -14 -3 -36 -7 -50 -10 -14 -2 -36 -7 -50
-10 -23 -5 -65 -11 -135 -20 -114 -15 -197 -19 -395 -19 -266 0 -342 6 -560
44 -75 14 -85 16 -165 35 -38 9 -74 18 -80 19 -42 10 -207 64 -285 93 -184 69
-305 128 -535 261 -99 57 -198 114 -220 127 -22 12 -56 31 -75 43 -377 219
-405 231 -540 230 -94 -1 -159 -16 -235 -55 -69 -35 -150 -101 -172 -140 -9
-18 -20 -33 -24 -33 -12 0 -58 -107 -71 -166 -11 -48 -13 -251 -12 -1054 1
-547 4 -1006 8 -1019 24 -98 81 -194 156 -265 53 -50 246 -149 588 -302 31
-14 75 -34 97 -44 22 -10 69 -30 105 -44 36 -15 79 -34 97 -42 36 -16 319
-111 355 -118 12 -3 50 -13 83 -22 33 -9 68 -18 78 -20 10 -2 27 -6 37 -9 10
-3 29 -8 42 -11 53 -12 68 -15 131 -29 12 -3 33 -7 47 -10 14 -3 36 -7 50 -10
14 -3 41 -8 60 -11 19 -3 42 -7 50 -9 8 -2 33 -7 55 -10 23 -3 52 -7 65 -10
14 -3 49 -7 78 -11 29 -3 63 -7 75 -10 12 -2 51 -7 87 -10 36 -4 79 -8 95 -10
247 -26 842 -25 1075 1 19 3 58 7 85 9 104 11 243 30 330 46 28 5 64 12 80 15
62 10 90 16 105 20 8 2 29 7 45 10 46 8 61 11 195 45 157 39 155 38 155 40 0
2 19 7 56 14 14 3 46 13 70 22 24 8 51 17 59 19 60 13 398 136 492 179 31 14
59 26 61 26 6 0 153 68 247 113 67 33 245 127 315 167 22 13 60 34 85 48 25
13 50 28 55 32 6 4 28 18 50 30 22 12 124 71 227 131 103 60 192 109 198 109
5 0 10 4 10 9 0 5 8 11 18 15 9 3 46 23 82 45 36 22 72 44 80 48 14 6 284 162
440 253 36 21 207 120 380 220 173 100 398 231 500 290 102 59 201 116 220
127 20 11 92 53 160 93 69 40 141 82 160 93 144 81 195 112 198 119 2 4 8 8
14 8 5 0 67 33 137 74 177 103 370 215 411 238 19 11 67 39 105 61 109 64 117
69 206 120 46 26 100 57 119 68 19 12 141 82 270 157 129 74 316 183 415 240
99 58 201 117 226 131 25 14 111 64 192 111 81 47 156 89 167 95 11 5 20 13
20 17 0 5 5 8 11 8 6 0 52 24 103 54 103 61 264 154 316 183 145 83 326 188
330 192 3 3 30 19 60 35 30 16 62 35 71 42 8 8 19 14 23 14 5 0 45 23 91 50
46 28 88 50 94 50 6 0 11 5 11 10 0 6 4 10 9 10 5 0 45 21 88 46 43 26 93 55
110 65 30 17 118 68 573 332 85 49 169 97 185 107 108 61 558 322 645 373 150
89 229 134 301 172 11 5 19 13 19 17 0 5 5 8 11 8 5 0 97 50 202 112 106 61
206 119 222 128 203 116 321 185 323 192 2 4 8 8 13 8 5 0 34 15 65 32 31 18
72 42 92 54 21 11 93 53 162 93 69 40 307 178 530 308 223 129 412 239 420
244 8 5 69 40 135 77 66 38 192 111 280 162 88 51 181 104 206 119 25 14 111
64 192 111 81 47 156 89 167 95 11 5 20 13 20 17 0 5 5 8 10 8 6 0 54 25 108
56 53 31 156 91 227 132 72 41 243 140 380 220 138 79 264 152 280 162 394
226 581 336 583 342 2 4 8 8 14 8 5 0 37 16 71 36 34 20 76 44 92 54 17 9 89
51 160 92 72 42 144 84 162 94 102 59 217 131 233 147 11 9 22 17 25 17 14 0
258 189 356 275 164 147 399 405 530 585 82 112 149 215 149 227 0 6 4 13 8
15 23 9 261 468 272 523 0 3 8 21 16 42 9 20 17 44 19 52 2 9 17 51 33 94 17
42 28 77 25 77 -3 0 -1 6 5 13 6 6 10 14 10 17 0 4 17 69 28 105 12 37 54 212
59 241 3 20 7 39 9 43 2 3 7 29 10 56 4 28 9 57 11 65 3 8 7 35 10 60 3 25 7
59 10 75 17 121 20 351 20 1710 0 1338 -3 1620 -20 1810 -10 114 -16 184 -21
225 -3 25 -7 61 -9 80 -2 19 -7 58 -10 85 -11 83 -13 98 -19 145 -4 25 -8 56
-11 70 -3 14 -7 43 -10 65 -3 22 -7 51 -10 65 -3 14 -7 39 -10 55 -2 17 -6 40
-9 51 -2 12 -7 37 -10 55 -6 35 -9 49 -26 134 -6 28 -12 60 -15 73 -2 13 -6
31 -9 40 -3 9 -7 28 -10 42 -4 21 -15 71 -32 143 -2 9 -6 25 -8 35 -2 9 -16
62 -31 117 -14 55 -28 107 -30 115 -1 8 -15 56 -30 105 -14 50 -28 99 -30 111
-3 11 -16 50 -29 87 -13 37 -23 67 -21 67 2 0 -7 30 -21 68 -14 37 -27 74 -29
82 -2 8 -18 53 -35 100 -17 47 -35 96 -40 110 -12 36 -78 208 -94 244 -8 17
-31 72 -51 121 -49 116 -67 158 -128 285 -28 58 -51 108 -51 112 -1 8 -139
281 -146 288 -3 3 -14 23 -26 45 -136 261 -389 668 -587 945 -42 58 -80 110
-84 115 -5 6 -35 46 -68 90 -290 386 -682 812 -1105 1200 -54 49 -300 257
-350 295 -25 19 -47 38 -50 41 -6 7 -48 40 -221 170 -200 151 -680 469 -707
469 -7 0 -12 3 -12 8 0 4 -24 20 -53 36 -28 16 -180 104 -337 194 -280 163
-776 449 -835 482 -16 10 -53 31 -81 47 -27 17 -70 41 -95 55 -50 29 -110 64
-288 166 -68 40 -127 72 -132 72 -5 0 -9 4 -9 9 0 5 -11 12 -25 15 -14 4 -25
11 -25 16 0 6 -5 10 -10 10 -6 0 -54 25 -108 56 -53 31 -117 68 -141 82 -25
14 -68 38 -95 55 -43 25 -166 96 -343 199 -22 12 -119 68 -214 123 -96 55
-175 103 -177 107 -2 5 -8 8 -13 8 -6 0 -54 25 -107 56 -121 71 -152 89 -199
115 -21 12 -91 52 -155 90 -64 38 -120 69 -124 69 -4 0 -15 6 -23 14 -9 7 -41
26 -71 42 -30 16 -57 32 -60 35 -3 3 -32 20 -65 39 -33 18 -154 88 -270 155
-449 261 -544 315 -554 315 -5 0 -11 4 -13 8 -1 5 -57 39 -123 76 -66 38 -133
76 -150 86 -218 127 -346 200 -352 200 -3 0 -14 6 -22 14 -9 7 -36 25 -61 38
-25 14 -99 57 -165 95 -190 110 -457 264 -495 286 -19 11 -76 44 -127 73 -50
30 -96 54 -102 54 -6 0 -11 3 -11 8 0 4 -10 12 -23 18 -12 6 -67 37 -122 69
-167 97 -337 195 -400 232 -33 18 -67 38 -75 43 -40 25 -362 210 -365 210 -2
0 -33 18 -69 40 -36 22 -68 40 -72 40 -3 0 -25 14 -50 30 -24 17 -44 27 -44
23 0 -4 -4 -3 -8 3 -4 5 -43 31 -87 56 -44 25 -96 55 -115 66 -19 11 -62 35
-95 54 -313 181 -669 386 -705 407 -25 14 -46 29 -48 33 -2 4 -8 8 -14 8 -5 0
-80 41 -166 91 -86 51 -179 105 -207 121 -27 16 -61 34 -75 41 -14 6 -27 14
-30 17 -9 10 -240 140 -249 140 -5 0 -11 4 -13 8 -3 7 -53 37 -198 119 -19 11
-86 50 -149 87 -62 36 -115 66 -118 66 -2 0 -20 10 -41 23 -49 31 -146 88
-202 119 -25 14 -73 42 -107 62 -34 20 -66 36 -71 36 -6 0 -12 4 -14 8 -3 7
-397 237 -455 266 -13 6 -23 14 -23 19 0 4 -5 7 -11 7 -5 0 -51 24 -102 54
-51 30 -108 63 -127 74 -19 10 -53 30 -76 43 -23 13 -104 60 -180 103 -76 44
-140 84 -142 88 -2 4 -8 8 -13 8 -6 0 -54 25 -107 56 -53 31 -113 65 -132 76
-19 11 -39 24 -45 28 -5 4 -35 21 -65 37 -65 36 -348 199 -370 213 -8 5 -53
31 -99 57 -46 27 -96 55 -110 63 -14 9 -57 33 -94 55 -38 22 -81 47 -95 56
-15 9 -47 27 -72 41 -25 14 -80 46 -123 72 -43 25 -80 46 -82 46 -3 0 -39 21
-82 46 -43 25 -85 49 -93 54 -27 16 -314 183 -345 200 -16 10 -70 41 -120 70
-192 112 -256 141 -361 166 -58 14 -277 13 -339 -2z"/>
<path d="M15117 37354 c-1 -2 -18 -6 -37 -9 -86 -14 -186 -55 -300 -122 -19
-11 -102 -60 -185 -108 -82 -49 -212 -125 -288 -169 -76 -45 -161 -94 -190
-110 -29 -16 -54 -32 -57 -35 -5 -6 -27 -19 -110 -63 -19 -11 -48 -28 -65 -38
-16 -10 -57 -34 -91 -53 -230 -131 -319 -203 -393 -316 -75 -117 -110 -238
-109 -379 1 -146 37 -268 111 -380 84 -125 124 -155 542 -399 66 -39 136 -80
155 -91 19 -10 76 -43 125 -72 79 -46 123 -71 199 -114 11 -6 25 -15 30 -19
11 -8 282 -167 366 -214 25 -14 82 -47 126 -74 45 -27 87 -49 93 -49 6 0 11
-3 11 -7 0 -5 26 -21 58 -38 31 -16 59 -33 62 -36 3 -4 28 -19 55 -33 28 -15
65 -36 83 -47 18 -10 119 -70 225 -132 376 -221 976 -572 1004 -587 15 -8 52
-30 81 -48 29 -17 54 -32 57 -32 3 0 29 -16 59 -35 30 -19 58 -35 61 -35 3 0
24 -11 46 -26 22 -14 55 -33 72 -43 34 -20 88 -51 262 -152 61 -35 112 -67
113 -71 2 -5 8 -8 13 -8 6 0 49 -23 97 -51 48 -29 107 -63 132 -77 25 -13 50
-28 55 -32 6 -5 37 -24 70 -43 56 -31 152 -87 610 -355 99 -58 205 -120 235
-137 49 -29 196 -114 587 -343 68 -40 125 -72 128 -72 3 0 11 -5 18 -10 22
-19 216 -130 227 -130 5 0 10 -3 10 -7 0 -5 26 -21 58 -38 31 -16 59 -33 62
-36 4 -4 61 -37 257 -150 17 -10 50 -29 72 -43 22 -15 42 -26 45 -26 3 0 102
-57 156 -90 8 -5 44 -26 80 -46 36 -21 67 -41 68 -46 2 -4 12 -8 22 -8 10 0
20 -4 22 -8 4 -10 334 -202 347 -202 5 0 11 -4 13 -8 2 -5 127 -80 278 -167
151 -88 277 -163 278 -167 2 -4 12 -8 23 -8 10 0 19 -4 19 -8 0 -5 15 -16 33
-25 41 -21 83 -46 232 -134 66 -39 136 -80 155 -91 19 -10 125 -72 235 -137
110 -64 218 -127 240 -140 22 -12 101 -58 175 -102 74 -44 155 -91 180 -105
25 -14 162 -94 305 -178 143 -83 278 -162 300 -174 22 -13 65 -37 95 -55 30
-18 62 -36 70 -41 50 -29 1224 -715 1311 -767 59 -35 111 -63 117 -63 6 0 12
-4 14 -8 2 -5 50 -35 108 -68 57 -32 123 -70 146 -84 52 -31 164 -96 439 -257
116 -67 215 -127 222 -133 7 -5 15 -10 18 -10 4 0 324 -186 585 -340 67 -39
440 -257 460 -267 14 -8 43 -25 65 -39 22 -13 47 -27 55 -31 8 -4 32 -17 53
-30 21 -13 53 -32 70 -42 18 -11 73 -42 122 -71 50 -29 104 -60 120 -70 17 -9
77 -45 133 -79 57 -33 106 -61 108 -61 3 0 33 -17 67 -38 102 -64 305 -182
311 -182 3 0 24 -13 48 -29 24 -15 63 -39 88 -52 25 -14 111 -64 192 -112 80
-48 149 -87 153 -87 3 0 11 -4 18 -10 7 -5 75 -52 152 -103 382 -253 705 -541
995 -887 30 -36 57 -67 60 -70 4 -3 21 -26 40 -52 18 -27 37 -48 42 -48 4 0 8
-4 8 -10 0 -8 58 -91 133 -191 7 -8 17 -24 24 -35 6 -10 38 -62 71 -114 125
-200 282 -499 342 -650 12 -30 28 -68 35 -85 30 -68 126 -338 141 -395 2 -8
15 -53 29 -100 13 -47 27 -98 30 -115 3 -16 11 -48 16 -70 15 -55 24 -93 39
-170 5 -27 12 -61 15 -75 13 -63 29 -255 40 -515 10 -219 14 -247 42 -318 40
-101 145 -222 233 -267 98 -50 152 -64 255 -64 103 -1 138 4 174 24 12 6 21 8
21 5 0 -8 135 66 269 147 34 21 64 38 66 38 2 0 39 21 82 46 43 26 92 55 108
64 17 9 102 59 190 110 88 51 180 104 205 118 25 14 74 42 109 64 34 21 64 38
66 38 1 0 78 44 171 98 93 54 180 105 194 113 14 8 27 16 30 19 3 3 30 18 60
34 200 106 311 276 312 478 0 35 -2 77 -6 93 -3 17 -9 50 -12 75 -3 25 -7 52
-9 60 -2 8 -7 29 -10 45 -2 17 -7 41 -10 55 -3 14 -7 37 -10 52 -3 15 -19 87
-36 160 -16 73 -32 140 -34 148 -16 71 -79 301 -96 352 -11 35 -22 70 -24 78
-11 58 -183 531 -231 635 -12 28 -31 73 -42 100 -19 48 -70 159 -153 330 -83
174 -256 482 -356 637 -24 37 -43 71 -43 77 0 5 -3 11 -8 13 -4 2 -25 30 -47
63 -45 70 -191 279 -210 304 -26 31 -110 143 -120 159 -5 9 -20 28 -32 42 -13
14 -58 68 -100 120 -278 344 -641 706 -1010 1009 -124 101 -346 269 -438 331
-27 19 -52 36 -55 39 -3 3 -12 11 -21 16 -9 6 -27 17 -40 26 -135 92 -366 231
-744 449 -16 9 -68 40 -115 67 -47 28 -101 60 -120 70 -19 11 -183 107 -365
213 -181 106 -411 240 -510 298 -99 57 -232 135 -295 172 -397 233 -601 350
-609 350 -5 0 -11 4 -13 8 -1 4 -50 35 -108 68 -58 34 -188 109 -290 169 -102
59 -198 116 -215 125 -16 9 -66 39 -110 65 -44 26 -96 56 -115 67 -19 11 -76
44 -127 74 -51 30 -96 54 -102 54 -5 0 -11 4 -13 8 -1 4 -50 35 -108 69 -58
33 -157 91 -220 128 -138 81 -294 171 -335 195 -16 9 -104 61 -194 114 -90 53
-165 96 -167 96 -2 0 -147 85 -204 120 -8 5 -37 22 -65 38 -27 16 -79 46 -115
67 -36 20 -85 49 -110 63 -25 14 -56 33 -70 42 -14 9 -50 31 -80 47 -30 17
-107 61 -170 98 -63 37 -128 76 -145 85 -16 10 -109 63 -205 120 -96 56 -202
117 -235 136 -33 20 -67 39 -75 44 -8 5 -40 24 -70 41 -30 18 -118 69 -195
115 -153 89 -192 112 -245 140 -19 11 -37 22 -40 25 -3 3 -52 32 -110 66 -58
33 -159 92 -225 130 -493 288 -606 353 -614 353 -5 0 -11 4 -13 8 -1 5 -50 35
-108 69 -114 65 -396 228 -420 243 -8 5 -136 80 -285 166 -148 87 -324 190
-390 229 -66 39 -145 84 -175 101 -30 16 -57 31 -60 35 -3 3 -79 48 -170 101
-91 53 -179 104 -197 114 -39 24 -257 150 -298 174 -16 9 -69 40 -117 69 -48
28 -91 51 -97 51 -5 0 -11 4 -13 8 -3 7 -97 63 -493 292 -16 9 -69 40 -117 69
-48 28 -91 51 -97 51 -5 0 -11 4 -13 8 -3 7 -32 25 -128 80 -19 10 -156 90
-304 177 -300 175 -316 185 -366 211 -19 11 -37 22 -40 25 -3 3 -25 17 -50 30
-25 14 -100 58 -167 97 -68 40 -127 72 -132 72 -5 0 -11 4 -13 8 -1 5 -28 22
-58 39 -30 17 -104 60 -165 95 -426 251 -956 558 -964 558 -5 0 -11 4 -13 8
-1 4 -23 19 -48 33 -25 14 -150 87 -279 162 -129 76 -236 137 -239 137 -3 0
-13 6 -21 14 -9 7 -41 26 -71 42 -30 16 -57 31 -60 34 -11 12 -357 209 -395
225 -44 19 -89 34 -120 40 -11 3 -31 8 -45 11 -25 7 -247 14 -253 8z"/>
<path d="M10068 34005 c-2 -2 -39 -6 -83 -10 -120 -9 -252 -25 -329 -41 -11
-2 -37 -7 -56 -10 -19 -3 -62 -12 -95 -21 -33 -8 -71 -17 -85 -19 -14 -3 -34
-8 -45 -11 -11 -4 -26 -8 -33 -9 -6 -1 -50 -14 -97 -29 -46 -14 -86 -26 -87
-25 -4 1 -117 -41 -215 -80 -162 -65 -319 -142 -508 -250 -232 -132 -966 -557
-986 -571 -14 -10 -28 -16 -31 -14 -2 2 -17 -7 -32 -20 -16 -14 -33 -25 -37
-25 -4 0 -47 -23 -96 -51 -48 -29 -108 -63 -133 -77 -25 -14 -73 -43 -108 -64
-34 -21 -65 -38 -68 -38 -3 0 -30 -16 -60 -35 -30 -19 -56 -35 -58 -35 -5 0
-468 -268 -571 -331 -186 -113 -570 -372 -691 -466 -16 -12 -85 -66 -154 -119
-272 -211 -495 -409 -776 -689 -239 -238 -415 -431 -591 -645 -92 -113 -258
-330 -328 -430 -21 -30 -65 -92 -97 -138 -32 -45 -58 -87 -58 -91 0 -5 -7 -11
-15 -15 -8 -3 -15 -10 -15 -15 0 -10 -40 -74 -62 -101 -7 -8 -18 -24 -24 -35
-10 -18 -161 -268 -184 -305 -90 -144 -460 -872 -460 -906 0 -3 -11 -30 -25
-60 -14 -31 -41 -97 -60 -147 -20 -51 -40 -100 -46 -111 -6 -10 -12 -26 -14
-35 -3 -9 -16 -47 -31 -86 -25 -66 -113 -319 -118 -340 -2 -5 -6 -17 -9 -25
-6 -16 -46 -144 -52 -170 -2 -8 -20 -71 -40 -140 -19 -69 -37 -134 -40 -145
-2 -11 -8 -35 -14 -52 -5 -18 -8 -33 -5 -33 3 0 0 -8 -5 -17 -5 -10 -12 -34
-15 -54 -3 -20 -10 -47 -15 -60 -5 -13 -9 -27 -9 -32 0 -4 -3 -20 -6 -35 -4
-15 -9 -38 -12 -52 -3 -14 -7 -34 -9 -45 -3 -11 -7 -30 -9 -43 -3 -13 -7 -31
-10 -40 -3 -9 -7 -33 -10 -52 -3 -19 -8 -46 -11 -60 -3 -14 -7 -38 -10 -55 -2
-16 -7 -41 -9 -55 -3 -13 -8 -40 -11 -60 -3 -20 -7 -47 -10 -60 -3 -13 -7 -42
-10 -65 -4 -22 -8 -53 -11 -70 -3 -16 -7 -46 -9 -65 -3 -19 -7 -51 -9 -70 -10
-66 -17 -125 -21 -175 -3 -27 -7 -66 -10 -85 -5 -39 -17 -183 -20 -245 -2 -22
-6 -96 -10 -165 -11 -180 -12 -354 -19 -8695 -6 -6986 -5 -7596 10 -7660 15
-66 21 -83 61 -172 26 -60 90 -149 148 -207 74 -75 126 -109 315 -209 41 -22
104 -55 140 -74 36 -20 103 -56 150 -81 47 -24 108 -57 135 -72 61 -33 171
-92 290 -155 50 -27 110 -59 135 -73 323 -177 396 -204 560 -203 76 0 85 1
175 22 58 14 152 56 213 97 168 113 280 306 298 512 1 19 6 3464 10 7655 9
9628 7 9167 30 9380 2 22 6 65 9 95 3 30 7 71 10 90 2 19 7 59 10 88 4 29 8
63 11 75 2 12 6 38 9 57 3 19 7 46 10 60 3 14 7 41 10 60 6 44 15 91 20 110 2
8 7 29 10 45 6 37 10 56 25 120 6 28 13 59 16 69 2 10 13 55 25 100 11 45 22
86 23 91 2 6 8 30 15 55 8 25 14 50 16 55 1 6 4 17 8 25 9 24 39 124 41 135 1
6 5 15 8 21 4 6 9 21 11 35 3 13 12 42 20 64 9 22 32 85 52 140 20 55 45 119
56 142 10 24 19 45 19 49 0 3 11 30 25 60 14 30 25 56 25 59 0 6 88 192 142
300 129 257 279 507 450 750 42 61 80 115 85 120 5 6 39 51 78 100 382 497
840 928 1365 1287 113 78 296 194 374 238 98 55 373 214 407 235 21 14 41 25
44 25 3 0 31 16 61 35 30 19 56 35 58 35 2 0 77 43 167 95 89 52 163 95 164
95 2 0 103 59 225 130 123 72 225 130 226 130 2 0 37 20 77 45 41 25 80 45 86
45 6 0 11 5 11 10 0 6 4 10 9 10 5 0 70 36 145 80 220 129 428 230 498 244 13
2 30 7 38 10 15 5 43 11 105 22 17 3 50 10 75 14 47 9 343 7 395 -3 17 -3 53
-11 80 -17 28 -6 57 -13 65 -15 35 -7 149 -48 198 -71 29 -13 54 -24 56 -24 2
0 57 -31 122 -69 66 -37 186 -107 268 -155 82 -47 150 -86 152 -86 1 0 31 -17
65 -38 35 -21 89 -52 119 -69 115 -64 268 -151 337 -191 39 -23 76 -42 82 -42
6 0 11 -4 11 -9 0 -5 15 -14 33 -22 17 -7 34 -15 37 -18 3 -3 16 -12 30 -20
14 -8 126 -73 250 -144 124 -72 241 -139 260 -150 19 -10 91 -52 160 -92 69
-40 142 -82 163 -94 55 -31 89 -51 234 -134 72 -42 147 -85 165 -95 18 -11
121 -70 228 -132 107 -61 213 -122 235 -135 22 -12 132 -75 245 -140 113 -65
268 -154 345 -198 77 -44 157 -90 177 -103 21 -13 40 -24 43 -24 3 0 22 -11
43 -23 54 -35 296 -174 440 -253 26 -15 52 -30 57 -34 8 -6 488 -283 593 -341
70 -40 584 -336 692 -399 63 -37 135 -78 160 -92 25 -14 104 -59 177 -101 72
-43 136 -77 141 -77 6 0 12 -3 14 -8 2 -4 44 -30 93 -59 73 -41 599 -343 720
-413 17 -10 100 -57 185 -106 85 -49 157 -92 158 -96 2 -5 8 -8 13 -8 5 0 99
-52 209 -115 109 -63 203 -115 209 -115 5 0 11 -4 13 -8 4 -9 515 -302 527
-302 5 0 11 -3 13 -8 2 -6 152 -94 338 -199 19 -11 94 -54 167 -96 72 -42 149
-86 170 -98 21 -12 52 -30 68 -40 17 -10 41 -24 55 -32 28 -15 269 -154 520
-299 91 -53 183 -106 205 -118 22 -13 54 -31 70 -41 17 -10 46 -27 65 -37 19
-10 94 -53 167 -95 73 -43 137 -77 142 -77 5 0 11 -4 13 -8 2 -5 28 -22 58
-39 30 -16 71 -39 90 -50 19 -11 89 -52 155 -90 66 -38 140 -81 165 -95 25
-14 104 -59 175 -100 172 -99 521 -300 565 -326 19 -10 96 -55 170 -97 74 -43
153 -88 175 -99 22 -12 42 -24 45 -27 6 -7 150 -89 156 -89 2 0 22 -11 43 -24
21 -14 126 -75 232 -137 107 -61 208 -120 226 -130 18 -10 63 -35 100 -55 37
-20 73 -40 78 -44 10 -8 243 -142 325 -188 25 -14 81 -46 125 -72 44 -26 124
-73 179 -105 320 -189 574 -412 855 -750 51 -62 190 -269 243 -363 42 -75 138
-269 173 -352 34 -79 121 -331 130 -375 2 -11 4 -20 5 -20 1 0 4 -11 6 -25 3
-14 9 -43 15 -65 6 -22 13 -49 15 -60 10 -52 24 -134 29 -170 3 -22 7 -49 10
-60 4 -18 9 -68 20 -195 2 -25 4 -266 5 -536 1 -522 4 -549 52 -654 40 -87
139 -189 227 -234 97 -50 245 -69 352 -45 38 9 154 61 204 92 11 7 61 35 110
63 50 29 148 86 219 128 70 42 129 76 131 76 1 0 54 30 116 66 63 37 186 108
274 159 88 51 228 132 310 180 83 48 210 122 284 164 165 94 244 167 295 274
19 40 39 95 44 122 10 45 8 221 -2 335 -5 44 -16 174 -21 235 -4 53 -16 159
-22 200 -3 22 -7 51 -8 65 -6 53 -16 126 -20 140 -2 8 -7 35 -11 60 -3 25 -7
50 -8 55 -2 6 -6 28 -10 50 -5 22 -15 67 -23 100 -8 33 -16 67 -18 75 -5 25
-47 184 -53 200 -3 8 -6 17 -7 20 -19 74 -117 364 -163 480 -5 14 -10 28 -10
33 -1 4 -9 22 -18 40 -29 55 -34 66 -34 76 0 5 -20 52 -45 105 -25 53 -46 99
-47 104 -5 21 -172 338 -179 340 -5 2 -9 9 -9 15 0 23 -278 466 -316 505 -8 7
-14 17 -14 22 0 5 -6 15 -12 22 -7 7 -49 61 -92 118 -391 517 -880 973 -1424
1327 -151 99 -148 97 -707 418 -132 76 -312 179 -400 230 -88 51 -176 102
-195 113 -19 11 -133 76 -253 146 -120 69 -221 126 -224 126 -3 0 -17 8 -31
19 -15 10 -49 31 -77 45 -27 15 -63 35 -80 45 -32 19 -211 123 -260 151 -16 9
-91 52 -165 95 -74 43 -148 85 -165 94 -16 9 -35 22 -43 29 -7 6 -20 12 -28
12 -8 0 -14 5 -14 10 0 6 -9 10 -19 10 -11 0 -21 4 -23 8 -3 7 -54 38 -218
130 -25 13 -49 28 -55 32 -5 4 -30 19 -55 32 -45 26 -439 252 -735 423 -88 51
-236 136 -330 190 -93 54 -186 107 -205 118 -19 11 -51 30 -72 41 -110 63
-260 150 -394 228 -84 48 -157 88 -163 88 -6 0 -11 3 -11 8 0 4 -10 12 -23 18
-18 8 -194 109 -392 224 -230 133 -366 210 -374 210 -5 0 -11 4 -13 8 -2 6
-157 97 -413 242 -16 10 -89 51 -162 93 -161 93 -190 110 -273 157 -36 20
-126 72 -200 115 -198 115 -213 124 -235 135 -11 6 -33 18 -50 28 -16 10 -50
30 -75 44 -25 14 -110 63 -190 109 -80 46 -158 91 -175 99 -16 8 -32 18 -35
21 -3 3 -30 19 -60 36 -67 37 -160 90 -180 103 -8 6 -31 18 -50 28 -19 9 -41
23 -48 30 -7 6 -20 12 -28 12 -8 0 -14 3 -14 8 0 4 -19 16 -43 27 -23 11 -44
22 -47 25 -10 11 -379 220 -389 220 -5 0 -11 4 -13 8 -3 7 -228 139 -368 215
-30 16 -59 33 -65 37 -5 4 -26 17 -45 28 -19 11 -153 88 -298 171 -145 83
-266 151 -269 151 -4 0 -14 6 -22 14 -9 7 -41 27 -71 43 -30 17 -158 90 -285
163 -126 73 -246 142 -265 153 -19 11 -154 88 -300 172 -146 84 -281 162 -300
173 -29 16 -142 81 -345 199 -22 12 -47 26 -55 30 -7 4 -42 24 -77 45 -34 21
-65 38 -68 38 -3 0 -22 11 -43 23 -20 13 -143 85 -272 159 -366 211 -780 448
-830 476 -25 14 -62 36 -82 49 -21 12 -42 23 -48 23 -5 0 -10 5 -10 10 0 6 -4
10 -10 10 -5 0 -69 34 -142 76 -324 187 -372 214 -380 214 -4 0 -8 5 -8 10 0
6 -5 10 -10 10 -6 0 -68 33 -138 74 -70 40 -147 85 -172 99 -25 13 -119 67
-210 119 -175 99 -334 176 -490 238 -59 24 -219 81 -235 85 -5 1 -17 5 -25 8
-8 3 -35 11 -60 18 -25 7 -49 14 -55 15 -58 17 -125 34 -145 38 -14 3 -36 7
-50 10 -14 3 -36 8 -50 11 -114 24 -217 40 -405 61 -49 6 -552 14 -557 9z"/>
<path d="M9885 28568 c-16 -4 -41 -10 -53 -13 -51 -9 -150 -64 -222 -122 -196
-159 -518 -464 -721 -684 -374 -404 -751 -926 -1018 -1409 -63 -114 -295 -583
-306 -620 -1 -3 -9 -22 -18 -44 -9 -21 -17 -40 -17 -42 0 -2 -9 -23 -20 -47
-25 -54 -81 -197 -85 -217 -2 -8 -12 -36 -24 -62 -11 -27 -18 -48 -14 -48 3 0
1 -6 -5 -12 -9 -12 -116 -338 -143 -438 -16 -56 -13 -47 -28 -100 -7 -25 -14
-49 -15 -55 -1 -5 -5 -19 -9 -30 -3 -11 -8 -31 -11 -45 -3 -14 -7 -35 -10 -47
-4 -13 -8 -31 -10 -40 -14 -57 -65 -294 -70 -323 -3 -19 -8 -46 -11 -60 -2
-13 -7 -40 -10 -60 -3 -20 -7 -45 -9 -57 -12 -61 -25 -150 -42 -288 -25 -204
-38 -347 -50 -575 -10 -185 -22 -16710 -12 -16770 8 -48 27 -119 42 -155 7
-16 19 -43 25 -59 22 -53 85 -139 151 -206 78 -80 109 -100 305 -205 95 -50
209 -111 340 -182 44 -24 109 -58 145 -76 36 -17 67 -35 70 -38 3 -3 39 -23
80 -43 41 -21 80 -42 85 -46 6 -4 69 -38 140 -75 72 -37 148 -78 171 -90 22
-13 49 -27 60 -32 10 -6 33 -17 49 -26 17 -8 33 -16 37 -16 4 -1 13 -4 20 -6
75 -29 275 -40 362 -21 135 31 246 93 351 200 105 106 159 210 190 366 3 19 9
2161 11 4760 9 9415 14 12596 18 12650 13 157 16 199 21 240 3 25 7 65 10 90
2 25 7 56 10 70 3 14 7 43 10 65 3 33 22 134 51 270 2 11 6 32 9 47 3 15 9 38
15 52 5 15 7 26 5 26 -2 0 0 11 5 25 5 14 12 37 14 50 3 14 9 39 15 57 10 30
73 236 76 248 1 3 6 16 12 30 6 14 19 52 31 85 120 349 366 806 616 1145 299
405 495 606 856 878 63 48 119 91 125 95 5 4 75 53 155 109 205 142 272 219
321 369 22 67 30 216 16 291 -11 60 -45 142 -86 204 -69 108 -125 147 -546
388 -217 124 -399 226 -404 226 -5 0 -11 4 -13 8 -1 4 -30 23 -63 41 -96 54
-133 76 -368 211 -186 107 -287 161 -287 153 0 -3 -6 -1 -13 5 -7 6 -28 14
-47 17 -18 3 -38 9 -43 12 -16 10 -188 11 -222 1z"/>
<path d="M14755 25802 c-59 -7 -151 -34 -208 -63 -104 -51 -618 -426 -839
-611 -149 -126 -175 -150 -317 -301 -470 -500 -848 -1084 -1118 -1727 -8 -19
-18 -44 -23 -55 -42 -91 -165 -453 -195 -570 -5 -16 -10 -34 -11 -40 -12 -39
-64 -237 -68 -260 -3 -17 -8 -41 -11 -55 -3 -14 -8 -36 -11 -50 -2 -14 -9 -45
-14 -70 -5 -25 -12 -58 -15 -75 -3 -16 -7 -40 -9 -51 -2 -12 -7 -39 -11 -60
-3 -22 -8 -50 -10 -64 -4 -22 -10 -73 -20 -150 -2 -14 -6 -56 -10 -95 -3 -38
-8 -81 -10 -94 -2 -13 -8 -78 -12 -145 -10 -157 -10 -15913 0 -16031 8 -96 14
-150 22 -202 3 -18 7 -50 10 -70 3 -21 9 -51 12 -68 4 -16 7 -37 8 -45 2 -8 5
-28 9 -45 3 -16 8 -41 11 -54 13 -66 48 -200 61 -234 7 -20 14 -40 14 -45 0
-11 52 -175 61 -192 8 -16 22 -51 23 -60 1 -3 9 -24 18 -45 9 -22 22 -56 30
-75 21 -56 133 -282 184 -372 197 -350 524 -744 809 -976 38 -31 79 -65 90
-75 27 -25 203 -152 290 -209 69 -45 389 -232 432 -252 13 -6 23 -14 23 -18 0
-5 9 -8 19 -8 11 0 21 -4 23 -8 2 -7 124 -78 342 -202 17 -9 110 -63 206 -120
96 -56 193 -112 215 -125 36 -20 196 -112 270 -155 17 -9 87 -49 155 -89 69
-39 132 -75 140 -80 99 -60 332 -191 339 -191 5 0 11 -4 13 -8 3 -8 100 -64
282 -163 147 -81 594 -298 646 -314 14 -4 46 -18 72 -31 27 -14 49 -24 50 -23
3 1 40 -14 103 -41 47 -21 225 -91 240 -94 6 -2 24 -8 40 -15 31 -13 412 -142
430 -145 6 -2 30 -9 55 -16 25 -8 47 -14 50 -15 3 0 21 -6 40 -13 19 -6 47
-13 62 -16 15 -3 31 -7 36 -10 5 -3 19 -7 33 -10 13 -3 87 -21 164 -41 77 -19
149 -37 160 -40 11 -2 31 -6 45 -9 14 -3 45 -10 70 -16 25 -5 56 -12 70 -14
14 -3 36 -8 50 -11 14 -3 41 -8 60 -11 19 -2 50 -9 70 -14 31 -8 55 -12 145
-26 60 -8 103 -15 125 -19 14 -3 45 -7 70 -10 25 -3 56 -7 70 -10 14 -2 52 -7
85 -11 33 -3 68 -8 77 -9 9 -2 49 -7 90 -10 40 -4 87 -8 103 -11 17 -2 68 -6
115 -9 47 -4 105 -8 130 -10 71 -7 444 -19 570 -19 114 0 459 12 555 18 28 2
93 7 145 10 52 4 106 9 120 11 14 3 52 7 84 10 33 2 76 7 96 10 21 3 56 8 80
10 24 2 59 7 79 10 20 3 52 7 71 9 73 10 245 38 306 50 12 2 37 7 55 10 19 3
45 8 59 11 14 3 40 8 59 11 19 2 37 6 41 9 4 2 22 7 41 10 19 3 48 8 64 12 17
4 32 7 35 8 3 1 19 4 35 8 17 4 40 10 53 12 43 10 58 13 102 25 43 12 55 15
101 25 12 2 36 9 54 15 18 6 41 12 51 14 10 2 60 16 109 31 50 14 95 27 100
29 30 7 191 57 230 72 11 4 25 8 30 10 17 4 209 72 240 85 17 7 35 13 40 14
13 4 241 93 280 110 17 7 78 34 136 59 340 145 624 292 1059 546 69 40 141 81
160 92 19 11 146 85 282 164 136 79 252 144 258 144 5 0 10 3 10 8 0 4 10 12
23 18 12 6 50 27 85 47 81 48 178 104 222 129 143 82 316 183 320 188 3 3 23
14 45 26 65 33 699 402 712 413 7 6 15 11 18 11 2 0 188 106 412 236 225 130
422 244 438 254 17 9 129 74 250 145 121 70 240 139 264 153 25 14 68 38 95
55 28 16 65 37 81 47 17 9 75 43 130 75 116 67 205 119 255 147 94 54 125 72
130 78 3 3 25 16 50 29 25 13 70 39 100 56 55 33 337 197 401 233 19 11 63 37
99 57 36 21 75 43 87 49 13 6 23 14 23 19 0 4 5 7 10 7 9 0 244 134 535 305
50 29 194 112 320 185 127 74 256 148 287 167 158 91 185 107 213 123 17 9 75
43 130 75 55 32 168 97 250 145 221 127 845 490 880 511 17 10 41 24 55 32 46
25 103 59 355 205 138 79 264 153 282 163 17 10 50 29 72 43 22 15 43 26 46
26 3 0 38 20 78 44 39 24 92 55 117 69 25 14 225 130 445 257 220 128 415 241
433 251 18 11 146 85 285 166 139 80 268 155 287 166 35 20 132 76 470 272
102 60 199 116 215 125 35 20 192 111 315 183 47 27 105 60 129 74 24 14 168
97 320 186 152 88 290 168 306 177 17 10 58 34 93 54 34 20 90 52 125 72 34
20 78 45 97 56 19 11 145 84 280 163 318 184 556 323 600 347 19 11 55 32 80
46 141 80 257 193 322 312 34 63 66 141 72 176 3 16 10 44 16 63 6 21 9 336 9
840 0 825 0 827 -37 947 -34 108 -132 239 -241 318 -127 93 -242 130 -411 130
-180 1 -226 -17 -560 -211 -47 -27 -157 -92 -245 -143 -88 -51 -176 -102 -195
-113 -19 -11 -55 -32 -80 -46 -25 -14 -46 -29 -48 -33 -2 -4 -8 -8 -13 -8 -5
0 -139 -75 -296 -166 -486 -282 -527 -306 -573 -332 -25 -14 -57 -33 -72 -43
-14 -11 -29 -19 -32 -19 -4 0 -39 -19 -79 -43 -86 -52 -433 -254 -497 -290
-25 -14 -85 -49 -135 -78 -146 -85 -263 -152 -318 -182 -29 -16 -53 -32 -55
-38 -2 -5 -8 -9 -13 -9 -9 0 -101 -52 -394 -223 -166 -97 -184 -107 -235 -136
-25 -14 -46 -29 -48 -33 -2 -4 -8 -8 -14 -8 -5 0 -48 -22 -95 -50 -47 -27 -89
-50 -94 -50 -5 0 -9 -4 -9 -10 0 -5 -4 -10 -9 -10 -6 0 -101 -53 -213 -118
-112 -65 -223 -130 -248 -143 -25 -13 -47 -26 -50 -29 -7 -8 -130 -80 -136
-80 -3 0 -30 -16 -60 -35 -30 -19 -56 -35 -59 -35 -3 0 -53 -28 -112 -63 -139
-82 -304 -178 -458 -267 -16 -9 -74 -43 -127 -74 -54 -31 -140 -80 -190 -109
-51 -30 -192 -111 -313 -182 -291 -169 -271 -157 -345 -200 -80 -46 -100 -57
-225 -130 -55 -32 -197 -114 -315 -183 -118 -68 -228 -132 -245 -142 -96 -55
-284 -165 -310 -180 -59 -33 -140 -81 -155 -90 -38 -24 -222 -130 -225 -130
-1 0 -65 -37 -141 -81 -77 -45 -153 -90 -170 -99 -16 -10 -91 -53 -165 -96
-74 -43 -154 -89 -179 -103 -25 -14 -47 -27 -50 -30 -3 -3 -31 -19 -62 -35
-32 -16 -58 -33 -58 -38 0 -4 -5 -8 -10 -8 -8 0 -130 -67 -200 -110 -8 -5 -53
-32 -100 -59 -228 -131 -422 -243 -590 -341 -102 -59 -230 -133 -285 -165 -55
-31 -104 -61 -110 -65 -5 -4 -30 -18 -55 -32 -49 -27 -251 -144 -625 -361
-132 -77 -262 -153 -290 -169 -83 -47 -195 -112 -213 -123 -9 -6 -53 -31 -97
-56 -44 -25 -136 -79 -205 -119 -69 -40 -138 -80 -155 -90 -16 -9 -56 -32 -88
-51 -33 -19 -75 -43 -95 -55 -38 -22 -144 -83 -197 -114 -156 -91 -411 -238
-455 -263 -30 -17 -95 -55 -143 -84 -48 -29 -90 -53 -92 -53 -3 0 -29 -16 -59
-35 -30 -19 -57 -35 -60 -35 -2 0 -40 -21 -83 -46 -43 -26 -93 -55 -111 -66
-18 -10 -103 -59 -187 -108 -164 -96 -204 -119 -275 -159 -25 -14 -46 -29 -48
-33 -2 -4 -8 -8 -14 -8 -5 0 -37 -16 -71 -36 -34 -20 -80 -47 -102 -59 -22
-13 -80 -47 -130 -76 -108 -62 -247 -143 -318 -183 -29 -16 -54 -32 -57 -35
-3 -3 -23 -15 -45 -27 -22 -12 -92 -49 -155 -84 -189 -104 -527 -259 -730
-335 -59 -22 -75 -28 -85 -31 -5 -1 -70 -23 -142 -48 -161 -56 -447 -136 -576
-162 -10 -2 -26 -5 -35 -8 -9 -3 -30 -8 -47 -11 -16 -2 -41 -7 -55 -10 -14 -3
-36 -7 -50 -10 -14 -3 -36 -7 -50 -10 -13 -2 -40 -7 -60 -10 -20 -3 -47 -7
-60 -10 -13 -3 -42 -7 -65 -10 -22 -4 -51 -8 -65 -10 -14 -2 -50 -7 -80 -11
-30 -3 -66 -7 -80 -9 -14 -2 -59 -7 -100 -10 -41 -4 -91 -9 -110 -11 -239 -22
-661 -22 -955 1 -106 8 -191 17 -205 20 -8 2 -42 7 -75 10 -33 4 -71 8 -85 10
-43 7 -93 15 -150 25 -30 5 -68 12 -85 14 -16 3 -55 11 -85 17 -30 6 -66 13
-80 15 -14 2 -106 24 -205 49 -99 25 -189 48 -200 50 -11 3 -31 9 -45 14 -20
8 -190 61 -210 66 -3 1 -12 4 -20 7 -8 4 -61 23 -118 43 -57 20 -158 59 -225
87 -67 27 -135 55 -152 61 -16 7 -33 16 -36 20 -3 5 -9 8 -13 8 -13 -2 -216
94 -315 148 -41 23 -80 41 -87 41 -8 0 -14 4 -14 8 0 4 -15 15 -32 23 -18 8
-125 68 -238 134 -113 65 -218 126 -235 134 -16 9 -32 18 -35 21 -9 9 -339
200 -347 200 -3 0 -14 6 -22 14 -9 7 -41 26 -71 42 -30 16 -57 32 -60 35 -3 3
-41 26 -85 51 -44 24 -161 92 -260 150 -99 58 -200 117 -225 130 -148 83 -335
194 -338 200 -2 5 -9 8 -15 8 -12 0 -177 102 -217 135 -66 53 -197 187 -245
250 -104 136 -204 334 -241 478 -19 77 -35 158 -41 212 -9 72 -8 15453 0
15555 9 112 19 186 31 246 2 12 7 39 11 60 11 72 16 97 20 104 2 4 7 22 10 40
8 46 41 165 59 218 8 23 15 43 15 45 -1 5 45 134 61 172 5 11 23 54 40 95 33
77 150 311 161 320 3 3 12 16 19 30 27 51 120 188 193 283 157 207 324 378
517 532 41 33 79 64 85 68 37 29 174 121 245 164 151 90 304 179 350 204 25
13 47 27 48 32 2 4 10 7 17 7 7 0 15 3 17 8 2 4 19 15 38 26 76 41 125 69 130
76 3 3 19 15 35 25 45 26 142 142 175 208 16 31 26 57 23 57 -3 0 -1 6 4 13 6
6 14 30 18 52 5 22 10 47 12 55 8 38 9 146 1 188 -14 79 -16 86 -29 122 -34
96 -114 206 -196 269 -33 26 -275 167 -708 416 -22 12 -96 55 -165 95 -69 39
-143 82 -165 95 -511 293 -536 305 -636 320 -50 8 -128 11 -164 7z"/>
<path d="M37307 17234 c-1 -1 -20 -5 -42 -9 -42 -7 -43 -7 -89 -20 -40 -11
-154 -67 -232 -115 -36 -22 -70 -40 -75 -40 -5 0 -9 -4 -9 -10 0 -5 -5 -10
-11 -10 -6 0 -38 -16 -72 -36 -34 -20 -75 -44 -92 -54 -68 -39 -317 -183 -585
-338 -157 -91 -298 -173 -315 -182 -33 -19 -354 -204 -510 -295 -55 -32 -174
-101 -265 -153 -91 -52 -205 -118 -255 -147 -49 -29 -106 -62 -125 -73 -33
-18 -111 -63 -330 -190 -100 -58 -191 -111 -250 -144 -19 -11 -91 -53 -160
-93 -182 -106 -438 -254 -490 -283 -25 -13 -50 -29 -57 -34 -7 -5 -27 -17 -45
-27 -39 -20 -45 -24 -338 -194 -305 -177 -337 -195 -400 -230 -30 -16 -59 -33
-65 -38 -5 -4 -82 -49 -170 -99 -88 -51 -173 -100 -190 -110 -16 -10 -64 -37
-105 -60 -103 -59 -362 -208 -380 -220 -14 -8 -41 -24 -155 -89 -37 -21 -135
-78 -485 -281 -142 -83 -177 -103 -240 -138 -25 -14 -72 -42 -105 -62 -33 -20
-67 -39 -75 -43 -17 -8 -35 -19 -255 -147 -88 -51 -173 -101 -190 -110 -57
-33 -160 -93 -204 -118 -25 -14 -68 -38 -95 -55 -61 -36 -105 -61 -166 -95
-25 -13 -49 -28 -55 -32 -5 -4 -86 -51 -180 -105 -93 -54 -255 -147 -360 -208
-104 -60 -210 -121 -235 -135 -25 -14 -74 -42 -109 -64 -34 -21 -64 -38 -66
-38 -2 0 -63 -35 -260 -150 -16 -10 -68 -39 -115 -66 -47 -27 -86 -52 -88 -56
-2 -4 -8 -8 -13 -8 -5 0 -53 -25 -107 -56 -53 -31 -110 -65 -127 -74 -16 -9
-160 -93 -320 -185 -159 -93 -300 -173 -312 -179 -13 -6 -23 -14 -23 -18 0 -5
-5 -8 -11 -8 -6 0 -38 -16 -72 -36 -34 -20 -82 -48 -107 -62 -25 -13 -49 -28
-55 -32 -11 -8 -56 -34 -145 -83 -30 -17 -56 -34 -58 -39 -2 -4 -8 -8 -13 -8
-8 0 -619 -349 -629 -360 -3 -3 -21 -13 -40 -24 -50 -27 -93 -51 -195 -111
-49 -29 -107 -62 -127 -74 -21 -11 -55 -31 -75 -42 -21 -12 -150 -87 -288
-167 -137 -79 -268 -155 -290 -167 -22 -13 -94 -54 -160 -92 -311 -180 -513
-297 -540 -313 -16 -9 -118 -68 -225 -130 -107 -62 -210 -121 -229 -132 -230
-131 -387 -224 -389 -230 -2 -4 -8 -8 -13 -8 -12 0 -243 -133 -247 -142 -2 -5
-8 -8 -13 -8 -5 0 -138 -75 -296 -166 -159 -92 -302 -174 -319 -184 -16 -10
-91 -53 -165 -96 -205 -119 -314 -180 -371 -209 -29 -14 -60 -30 -68 -36 -17
-10 -229 -109 -235 -109 -2 0 -24 -9 -49 -20 -26 -11 -47 -19 -49 -18 -1 1
-13 -5 -27 -12 -14 -8 -30 -15 -35 -16 -6 -1 -40 -13 -75 -27 -74 -29 -360
-121 -412 -133 -10 -2 -27 -6 -38 -9 -11 -3 -29 -7 -41 -10 -11 -2 -29 -7 -39
-10 -21 -7 -51 -13 -100 -21 -19 -3 -38 -8 -41 -10 -4 -2 -24 -6 -44 -10 -21
-3 -47 -8 -59 -10 -29 -6 -71 -13 -103 -18 -16 -3 -46 -7 -68 -11 -197 -30
-468 -49 -680 -49 -121 1 -377 12 -412 18 -10 2 -53 7 -95 10 -42 4 -85 8 -95
10 -16 3 -38 7 -138 22 -66 11 -127 21 -165 29 -14 3 -36 7 -50 10 -66 13
-298 70 -345 85 -150 49 -192 62 -205 65 -8 2 -51 17 -95 35 -44 17 -84 33
-90 34 -12 3 -38 14 -144 58 -42 18 -78 33 -81 34 -10 2 -79 34 -207 95 -195
94 -241 107 -348 104 -127 -4 -173 -17 -269 -80 -107 -69 -181 -169 -215 -295
-21 -73 -21 -90 -18 -1035 1 -528 6 -973 10 -990 4 -16 23 -63 42 -103 61
-130 169 -217 345 -280 185 -66 406 -141 435 -147 6 -1 43 -12 84 -24 41 -13
81 -24 90 -26 9 -2 48 -13 86 -24 39 -11 81 -22 95 -24 14 -3 45 -10 70 -17
25 -7 54 -14 65 -16 11 -2 30 -5 43 -8 45 -12 68 -16 102 -22 19 -3 37 -7 40
-9 3 -2 25 -6 50 -10 25 -4 47 -8 50 -10 3 -2 26 -6 50 -10 25 -3 52 -8 60
-10 8 -3 35 -7 60 -10 25 -3 56 -8 70 -10 14 -3 41 -8 60 -10 19 -3 49 -7 65
-10 17 -2 53 -7 80 -10 28 -3 66 -7 85 -10 32 -4 74 -9 185 -20 42 -4 206 -15
315 -21 84 -4 595 -4 680 0 94 5 252 16 297 21 21 2 70 6 108 10 86 8 105 11
175 20 30 4 64 8 75 10 89 11 131 17 149 21 12 2 37 6 56 9 33 5 49 7 110 20
14 2 41 7 60 10 19 3 42 8 50 10 8 2 30 7 49 10 19 3 37 7 40 9 3 2 22 7 41
10 73 12 96 17 126 27 17 5 40 11 50 13 11 2 37 9 59 15 22 6 51 12 65 15 14
2 25 5 25 6 0 1 7 3 15 5 101 20 575 172 710 228 14 6 27 11 30 11 7 2 114 44
165 66 49 21 78 33 85 35 3 0 28 12 55 25 28 13 52 24 55 25 20 2 433 207 535
264 60 34 488 281 505 292 8 5 83 48 165 95 83 48 164 94 180 104 17 10 68 39
115 66 47 26 87 51 88 56 2 4 8 8 14 8 5 0 52 25 103 54 50 30 114 68 141 83
117 66 279 160 322 186 26 15 54 31 62 34 8 4 17 9 20 12 3 3 21 15 40 25 19
10 62 35 95 54 33 19 80 46 105 60 25 14 74 42 109 64 34 21 67 38 71 38 4 0
13 7 20 15 7 8 16 13 20 10 4 -2 16 5 28 15 12 11 24 20 27 20 4 0 146 80 195
110 14 9 88 52 155 90 17 9 75 43 130 75 55 32 116 67 135 78 94 53 125 72
128 79 2 4 8 8 14 8 5 0 100 52 211 117 250 144 478 276 577 334 41 24 86 50
100 56 14 7 45 25 70 41 25 15 77 45 115 66 39 22 72 42 75 45 3 3 25 17 50
30 46 24 179 101 308 178 40 23 77 43 82 43 6 0 10 5 10 10 0 6 4 10 10 10 8
0 267 148 615 350 107 62 158 90 166 90 5 0 9 5 9 10 0 6 7 10 15 10 8 0 15 5
15 10 0 6 5 10 11 10 6 0 52 24 102 54 51 29 110 64 132 77 131 75 223 127
263 152 26 15 56 32 67 37 11 6 40 23 65 38 25 15 77 45 115 66 39 22 72 44
73 48 2 4 8 8 14 8 5 0 154 84 331 187 177 102 340 196 362 208 22 13 119 69
215 125 96 56 193 112 215 125 60 33 474 272 690 398 66 38 136 79 155 90 19
11 49 28 65 38 17 10 53 30 80 44 28 15 57 33 66 41 8 8 18 14 21 14 9 0 392
221 409 236 8 8 19 14 23 14 7 0 62 31 196 110 96 57 293 170 295 170 2 0 39
21 82 46 43 26 92 55 108 64 103 58 372 214 380 220 6 4 33 20 60 35 121 66
210 120 213 127 2 4 8 8 14 8 6 0 44 20 85 45 40 25 76 45 79 45 2 0 37 20 77
44 39 24 207 121 372 216 165 95 327 189 360 208 33 19 74 42 90 52 28 16 510
294 805 465 74 43 205 118 290 168 197 114 213 123 253 145 17 11 77 45 132
77 155 90 269 156 400 231 66 38 122 72 123 76 2 5 8 8 14 8 6 0 38 17 72 37
33 21 64 38 68 38 4 0 17 8 28 18 11 9 22 17 25 17 4 0 138 76 195 110 8 5 96
56 195 113 235 135 250 145 318 207 91 83 196 246 212 329 2 13 7 31 10 41 3
10 9 29 13 42 3 13 8 392 9 843 2 777 0 859 -24 925 -3 8 -7 21 -9 28 -7 35
-70 145 -112 198 -92 114 -248 214 -374 240 -13 2 -36 7 -53 10 -29 6 -183 13
-188 8z"/>
</g>
</svg>
